%FSLAX45Y45*%
G04 Gerber Fmt 4.5, Leading zero omitted, Abs format (unit mm)*
G04 Created by KiCad (PCBNEW (6.0.4)) date 2022-03-20 22:02:29*
%MOMM*%
%LPD*%
G01*
G04 APERTURE LIST*
%TA.AperFunction,Profile*%
%ADD10C,0.100000*%
%TD*%
%ADD11C,0.200000*%
G04 APERTURE END LIST*
D10*
X12022935Y-8382000D02*
X9403251Y-8382000D01*
X9403251Y-8382000D02*
X9403251Y-4882412D01*
X9403251Y-4882412D02*
X12022935Y-4882412D01*
X12022935Y-4882412D02*
X12022935Y-8382000D01*
D11*
X9655870Y-8697476D02*
X9655870Y-8497476D01*
X9703489Y-8497476D01*
X9732061Y-8507000D01*
X9751108Y-8526048D01*
X9760632Y-8545095D01*
X9770156Y-8583190D01*
X9770156Y-8611762D01*
X9760632Y-8649857D01*
X9751108Y-8668905D01*
X9732061Y-8687952D01*
X9703489Y-8697476D01*
X9655870Y-8697476D01*
X9855870Y-8697476D02*
X9855870Y-8564143D01*
X9855870Y-8602238D02*
X9865394Y-8583190D01*
X9874918Y-8573667D01*
X9893966Y-8564143D01*
X9913013Y-8564143D01*
X9979680Y-8697476D02*
X9979680Y-8564143D01*
X9979680Y-8497476D02*
X9970156Y-8507000D01*
X9979680Y-8516524D01*
X9989204Y-8507000D01*
X9979680Y-8497476D01*
X9979680Y-8516524D01*
X10103489Y-8697476D02*
X10084442Y-8687952D01*
X10074918Y-8668905D01*
X10074918Y-8497476D01*
X10208251Y-8697476D02*
X10189204Y-8687952D01*
X10179680Y-8668905D01*
X10179680Y-8497476D01*
X10436823Y-8697476D02*
X10436823Y-8497476D01*
X10503489Y-8640333D01*
X10570156Y-8497476D01*
X10570156Y-8697476D01*
X10751108Y-8697476D02*
X10751108Y-8592714D01*
X10741585Y-8573667D01*
X10722537Y-8564143D01*
X10684442Y-8564143D01*
X10665394Y-8573667D01*
X10751108Y-8687952D02*
X10732061Y-8697476D01*
X10684442Y-8697476D01*
X10665394Y-8687952D01*
X10655870Y-8668905D01*
X10655870Y-8649857D01*
X10665394Y-8630810D01*
X10684442Y-8621286D01*
X10732061Y-8621286D01*
X10751108Y-8611762D01*
X10846347Y-8564143D02*
X10846347Y-8764143D01*
X10846347Y-8573667D02*
X10865394Y-8564143D01*
X10903489Y-8564143D01*
X10922537Y-8573667D01*
X10932061Y-8583190D01*
X10941585Y-8602238D01*
X10941585Y-8659381D01*
X10932061Y-8678429D01*
X10922537Y-8687952D01*
X10903489Y-8697476D01*
X10865394Y-8697476D01*
X10846347Y-8687952D01*
X11027299Y-8678429D02*
X11036823Y-8687952D01*
X11027299Y-8697476D01*
X11017775Y-8687952D01*
X11027299Y-8678429D01*
X11027299Y-8697476D01*
X11027299Y-8573667D02*
X11036823Y-8583190D01*
X11027299Y-8592714D01*
X11017775Y-8583190D01*
X11027299Y-8573667D01*
X11027299Y-8592714D01*
M02*
