%FSLAX45Y45*%
G04 Gerber Fmt 4.5, Leading zero omitted, Abs format (unit mm)*
G04 Created by KiCad (PCBNEW (6.0.4)) date 2022-03-20 22:02:29*
%MOMM*%
%LPD*%
G01*
G04 APERTURE LIST*
%TA.AperFunction,Profile*%
%ADD10C,0.100000*%
%TD*%
%ADD11C,0.200000*%
%ADD12C,0.075000*%
%ADD13C,0.080000*%
%ADD14C,0.100000*%
G04 APERTURE END LIST*
D10*
X12022935Y-8382000D02*
X9403251Y-8382000D01*
X9403251Y-8382000D02*
X9403251Y-4882412D01*
X9403251Y-4882412D02*
X12022935Y-4882412D01*
X12022935Y-4882412D02*
X12022935Y-8382000D01*
D11*
D12*
X9797323Y-7852233D02*
X9872323Y-7927233D01*
X9872323Y-7852233D02*
X9797323Y-7927233D01*
X9797323Y-7979233D02*
X9872323Y-8054233D01*
X9872323Y-7979233D02*
X9797323Y-8054233D01*
X9797323Y-8106233D02*
X9872323Y-8181233D01*
X9872323Y-8106233D02*
X9797323Y-8181233D01*
X10557199Y-8024440D02*
X10632199Y-8099440D01*
X10632199Y-8024440D02*
X10557199Y-8099440D01*
X10811199Y-8024440D02*
X10886199Y-8099440D01*
X10886199Y-8024440D02*
X10811199Y-8099440D01*
D13*
X11487268Y-8095915D02*
G75*
G03*
X11487268Y-8095915I-40000J0D01*
G01*
X11494061Y-7476016D02*
G75*
G03*
X11494061Y-7476016I-40000J0D01*
G01*
D14*
X9573500Y-5665000D02*
X9573500Y-5765000D01*
X9523500Y-5715000D02*
X9623500Y-5715000D01*
X9573500Y-5919000D02*
X9573500Y-6019000D01*
X9523500Y-5969000D02*
X9623500Y-5969000D01*
X9573500Y-6173000D02*
X9573500Y-6273000D01*
X9523500Y-6223000D02*
X9623500Y-6223000D01*
X9573500Y-6427000D02*
X9573500Y-6527000D01*
X9523500Y-6477000D02*
X9623500Y-6477000D01*
X9573500Y-6681000D02*
X9573500Y-6781000D01*
X9523500Y-6731000D02*
X9623500Y-6731000D01*
X9573500Y-6935000D02*
X9573500Y-7035000D01*
X9523500Y-6985000D02*
X9623500Y-6985000D01*
X9573500Y-7189000D02*
X9573500Y-7289000D01*
X9523500Y-7239000D02*
X9623500Y-7239000D01*
X9573500Y-7443000D02*
X9573500Y-7543000D01*
X9523500Y-7493000D02*
X9623500Y-7493000D01*
X11859500Y-5665000D02*
X11859500Y-5765000D01*
X11809500Y-5715000D02*
X11909500Y-5715000D01*
X11859500Y-5919000D02*
X11859500Y-6019000D01*
X11809500Y-5969000D02*
X11909500Y-5969000D01*
X11859500Y-6173000D02*
X11859500Y-6273000D01*
X11809500Y-6223000D02*
X11909500Y-6223000D01*
X11859500Y-6427000D02*
X11859500Y-6527000D01*
X11809500Y-6477000D02*
X11909500Y-6477000D01*
X11859500Y-6681000D02*
X11859500Y-6781000D01*
X11809500Y-6731000D02*
X11909500Y-6731000D01*
X11859500Y-6935000D02*
X11859500Y-7035000D01*
X11809500Y-6985000D02*
X11909500Y-6985000D01*
X11859500Y-7189000D02*
X11859500Y-7289000D01*
X11809500Y-7239000D02*
X11909500Y-7239000D01*
X11859500Y-7443000D02*
X11859500Y-7543000D01*
X11809500Y-7493000D02*
X11909500Y-7493000D01*
D11*
X9655870Y-8697476D02*
X9655870Y-8497476D01*
X9703489Y-8497476D01*
X9732061Y-8507000D01*
X9751108Y-8526048D01*
X9760632Y-8545095D01*
X9770156Y-8583190D01*
X9770156Y-8611762D01*
X9760632Y-8649857D01*
X9751108Y-8668905D01*
X9732061Y-8687952D01*
X9703489Y-8697476D01*
X9655870Y-8697476D01*
X9855870Y-8697476D02*
X9855870Y-8564143D01*
X9855870Y-8602238D02*
X9865394Y-8583190D01*
X9874918Y-8573667D01*
X9893966Y-8564143D01*
X9913013Y-8564143D01*
X9979680Y-8697476D02*
X9979680Y-8564143D01*
X9979680Y-8497476D02*
X9970156Y-8507000D01*
X9979680Y-8516524D01*
X9989204Y-8507000D01*
X9979680Y-8497476D01*
X9979680Y-8516524D01*
X10103489Y-8697476D02*
X10084442Y-8687952D01*
X10074918Y-8668905D01*
X10074918Y-8497476D01*
X10208251Y-8697476D02*
X10189204Y-8687952D01*
X10179680Y-8668905D01*
X10179680Y-8497476D01*
X10436823Y-8697476D02*
X10436823Y-8497476D01*
X10503489Y-8640333D01*
X10570156Y-8497476D01*
X10570156Y-8697476D01*
X10751108Y-8697476D02*
X10751108Y-8592714D01*
X10741585Y-8573667D01*
X10722537Y-8564143D01*
X10684442Y-8564143D01*
X10665394Y-8573667D01*
X10751108Y-8687952D02*
X10732061Y-8697476D01*
X10684442Y-8697476D01*
X10665394Y-8687952D01*
X10655870Y-8668905D01*
X10655870Y-8649857D01*
X10665394Y-8630810D01*
X10684442Y-8621286D01*
X10732061Y-8621286D01*
X10751108Y-8611762D01*
X10846347Y-8564143D02*
X10846347Y-8764143D01*
X10846347Y-8573667D02*
X10865394Y-8564143D01*
X10903489Y-8564143D01*
X10922537Y-8573667D01*
X10932061Y-8583190D01*
X10941585Y-8602238D01*
X10941585Y-8659381D01*
X10932061Y-8678429D01*
X10922537Y-8687952D01*
X10903489Y-8697476D01*
X10865394Y-8697476D01*
X10846347Y-8687952D01*
X11027299Y-8678429D02*
X11036823Y-8687952D01*
X11027299Y-8697476D01*
X11017775Y-8687952D01*
X11027299Y-8678429D01*
X11027299Y-8697476D01*
X11027299Y-8573667D02*
X11036823Y-8583190D01*
X11027299Y-8592714D01*
X11017775Y-8583190D01*
X11027299Y-8573667D01*
X11027299Y-8592714D01*
D12*
X9323251Y-8989500D02*
X9398251Y-9064500D01*
X9398251Y-8989500D02*
X9323251Y-9064500D01*
D11*
X9693966Y-8917476D02*
X9713013Y-8917476D01*
X9732061Y-8927000D01*
X9741585Y-8936524D01*
X9751108Y-8955571D01*
X9760632Y-8993667D01*
X9760632Y-9041286D01*
X9751108Y-9079381D01*
X9741585Y-9098429D01*
X9732061Y-9107952D01*
X9713013Y-9117476D01*
X9693966Y-9117476D01*
X9674918Y-9107952D01*
X9665394Y-9098429D01*
X9655870Y-9079381D01*
X9646347Y-9041286D01*
X9646347Y-8993667D01*
X9655870Y-8955571D01*
X9665394Y-8936524D01*
X9674918Y-8927000D01*
X9693966Y-8917476D01*
X9846347Y-9098429D02*
X9855870Y-9107952D01*
X9846347Y-9117476D01*
X9836823Y-9107952D01*
X9846347Y-9098429D01*
X9846347Y-9117476D01*
X9922537Y-8917476D02*
X10055870Y-8917476D01*
X9970156Y-9117476D01*
X10227299Y-8917476D02*
X10132061Y-8917476D01*
X10122537Y-9012714D01*
X10132061Y-9003190D01*
X10151108Y-8993667D01*
X10198727Y-8993667D01*
X10217775Y-9003190D01*
X10227299Y-9012714D01*
X10236823Y-9031762D01*
X10236823Y-9079381D01*
X10227299Y-9098429D01*
X10217775Y-9107952D01*
X10198727Y-9117476D01*
X10151108Y-9117476D01*
X10132061Y-9107952D01*
X10122537Y-9098429D01*
X10360632Y-8917476D02*
X10379680Y-8917476D01*
X10398727Y-8927000D01*
X10408251Y-8936524D01*
X10417775Y-8955571D01*
X10427299Y-8993667D01*
X10427299Y-9041286D01*
X10417775Y-9079381D01*
X10408251Y-9098429D01*
X10398727Y-9107952D01*
X10379680Y-9117476D01*
X10360632Y-9117476D01*
X10341585Y-9107952D01*
X10332061Y-9098429D01*
X10322537Y-9079381D01*
X10313013Y-9041286D01*
X10313013Y-8993667D01*
X10322537Y-8955571D01*
X10332061Y-8936524D01*
X10341585Y-8927000D01*
X10360632Y-8917476D01*
X10513013Y-9117476D02*
X10513013Y-8984143D01*
X10513013Y-9003190D02*
X10522537Y-8993667D01*
X10541585Y-8984143D01*
X10570156Y-8984143D01*
X10589204Y-8993667D01*
X10598727Y-9012714D01*
X10598727Y-9117476D01*
X10598727Y-9012714D02*
X10608251Y-8993667D01*
X10627299Y-8984143D01*
X10655870Y-8984143D01*
X10674918Y-8993667D01*
X10684442Y-9012714D01*
X10684442Y-9117476D01*
X10779680Y-9117476D02*
X10779680Y-8984143D01*
X10779680Y-9003190D02*
X10789204Y-8993667D01*
X10808251Y-8984143D01*
X10836823Y-8984143D01*
X10855870Y-8993667D01*
X10865394Y-9012714D01*
X10865394Y-9117476D01*
X10865394Y-9012714D02*
X10874918Y-8993667D01*
X10893966Y-8984143D01*
X10922537Y-8984143D01*
X10941585Y-8993667D01*
X10951108Y-9012714D01*
X10951108Y-9117476D01*
X11341585Y-8907952D02*
X11170156Y-9165095D01*
X11598727Y-8917476D02*
X11617775Y-8917476D01*
X11636823Y-8927000D01*
X11646346Y-8936524D01*
X11655870Y-8955571D01*
X11665394Y-8993667D01*
X11665394Y-9041286D01*
X11655870Y-9079381D01*
X11646346Y-9098429D01*
X11636823Y-9107952D01*
X11617775Y-9117476D01*
X11598727Y-9117476D01*
X11579680Y-9107952D01*
X11570156Y-9098429D01*
X11560632Y-9079381D01*
X11551108Y-9041286D01*
X11551108Y-8993667D01*
X11560632Y-8955571D01*
X11570156Y-8936524D01*
X11579680Y-8927000D01*
X11598727Y-8917476D01*
X11751108Y-9098429D02*
X11760632Y-9107952D01*
X11751108Y-9117476D01*
X11741585Y-9107952D01*
X11751108Y-9098429D01*
X11751108Y-9117476D01*
X11884442Y-8917476D02*
X11903489Y-8917476D01*
X11922537Y-8927000D01*
X11932061Y-8936524D01*
X11941585Y-8955571D01*
X11951108Y-8993667D01*
X11951108Y-9041286D01*
X11941585Y-9079381D01*
X11932061Y-9098429D01*
X11922537Y-9107952D01*
X11903489Y-9117476D01*
X11884442Y-9117476D01*
X11865394Y-9107952D01*
X11855870Y-9098429D01*
X11846346Y-9079381D01*
X11836823Y-9041286D01*
X11836823Y-8993667D01*
X11846346Y-8955571D01*
X11855870Y-8936524D01*
X11865394Y-8927000D01*
X11884442Y-8917476D01*
X12027299Y-8936524D02*
X12036823Y-8927000D01*
X12055870Y-8917476D01*
X12103489Y-8917476D01*
X12122537Y-8927000D01*
X12132061Y-8936524D01*
X12141585Y-8955571D01*
X12141585Y-8974619D01*
X12132061Y-9003190D01*
X12017775Y-9117476D01*
X12141585Y-9117476D01*
X12236823Y-9117476D02*
X12274918Y-9117476D01*
X12293965Y-9107952D01*
X12303489Y-9098429D01*
X12322537Y-9069857D01*
X12332061Y-9031762D01*
X12332061Y-8955571D01*
X12322537Y-8936524D01*
X12313013Y-8927000D01*
X12293965Y-8917476D01*
X12255870Y-8917476D01*
X12236823Y-8927000D01*
X12227299Y-8936524D01*
X12217775Y-8955571D01*
X12217775Y-9003190D01*
X12227299Y-9022238D01*
X12236823Y-9031762D01*
X12255870Y-9041286D01*
X12293965Y-9041286D01*
X12313013Y-9031762D01*
X12322537Y-9022238D01*
X12332061Y-9003190D01*
X12513013Y-8917476D02*
X12417775Y-8917476D01*
X12408251Y-9012714D01*
X12417775Y-9003190D01*
X12436823Y-8993667D01*
X12484442Y-8993667D01*
X12503489Y-9003190D01*
X12513013Y-9012714D01*
X12522537Y-9031762D01*
X12522537Y-9079381D01*
X12513013Y-9098429D01*
X12503489Y-9107952D01*
X12484442Y-9117476D01*
X12436823Y-9117476D01*
X12417775Y-9107952D01*
X12408251Y-9098429D01*
X12598727Y-8917476D02*
X12598727Y-8955571D01*
X12674918Y-8917476D02*
X12674918Y-8955571D01*
X12970156Y-9193667D02*
X12960632Y-9184143D01*
X12941585Y-9155571D01*
X12932061Y-9136524D01*
X12922537Y-9107952D01*
X12913013Y-9060333D01*
X12913013Y-9022238D01*
X12922537Y-8974619D01*
X12932061Y-8946048D01*
X12941585Y-8927000D01*
X12960632Y-8898429D01*
X12970156Y-8888905D01*
X13141585Y-8917476D02*
X13046346Y-8917476D01*
X13036823Y-9012714D01*
X13046346Y-9003190D01*
X13065394Y-8993667D01*
X13113013Y-8993667D01*
X13132061Y-9003190D01*
X13141585Y-9012714D01*
X13151108Y-9031762D01*
X13151108Y-9079381D01*
X13141585Y-9098429D01*
X13132061Y-9107952D01*
X13113013Y-9117476D01*
X13065394Y-9117476D01*
X13046346Y-9107952D01*
X13036823Y-9098429D01*
X13389204Y-9117476D02*
X13389204Y-8917476D01*
X13474918Y-9117476D02*
X13474918Y-9012714D01*
X13465394Y-8993667D01*
X13446346Y-8984143D01*
X13417775Y-8984143D01*
X13398727Y-8993667D01*
X13389204Y-9003190D01*
X13598727Y-9117476D02*
X13579680Y-9107952D01*
X13570156Y-9098429D01*
X13560632Y-9079381D01*
X13560632Y-9022238D01*
X13570156Y-9003190D01*
X13579680Y-8993667D01*
X13598727Y-8984143D01*
X13627299Y-8984143D01*
X13646346Y-8993667D01*
X13655870Y-9003190D01*
X13665394Y-9022238D01*
X13665394Y-9079381D01*
X13655870Y-9098429D01*
X13646346Y-9107952D01*
X13627299Y-9117476D01*
X13598727Y-9117476D01*
X13779680Y-9117476D02*
X13760632Y-9107952D01*
X13751108Y-9088905D01*
X13751108Y-8917476D01*
X13932061Y-9107952D02*
X13913013Y-9117476D01*
X13874918Y-9117476D01*
X13855870Y-9107952D01*
X13846346Y-9088905D01*
X13846346Y-9012714D01*
X13855870Y-8993667D01*
X13874918Y-8984143D01*
X13913013Y-8984143D01*
X13932061Y-8993667D01*
X13941585Y-9012714D01*
X13941585Y-9031762D01*
X13846346Y-9050810D01*
X14017775Y-9107952D02*
X14036823Y-9117476D01*
X14074918Y-9117476D01*
X14093965Y-9107952D01*
X14103489Y-9088905D01*
X14103489Y-9079381D01*
X14093965Y-9060333D01*
X14074918Y-9050810D01*
X14046346Y-9050810D01*
X14027299Y-9041286D01*
X14017775Y-9022238D01*
X14017775Y-9012714D01*
X14027299Y-8993667D01*
X14046346Y-8984143D01*
X14074918Y-8984143D01*
X14093965Y-8993667D01*
X14170156Y-9193667D02*
X14179680Y-9184143D01*
X14198727Y-9155571D01*
X14208251Y-9136524D01*
X14217775Y-9107952D01*
X14227299Y-9060333D01*
X14227299Y-9022238D01*
X14217775Y-8974619D01*
X14208251Y-8946048D01*
X14198727Y-8927000D01*
X14179680Y-8898429D01*
X14170156Y-8888905D01*
D13*
X9398251Y-9291000D02*
G75*
G03*
X9398251Y-9291000I-40000J0D01*
G01*
D11*
X9693966Y-9181476D02*
X9713013Y-9181476D01*
X9732061Y-9191000D01*
X9741585Y-9200524D01*
X9751108Y-9219571D01*
X9760632Y-9257667D01*
X9760632Y-9305286D01*
X9751108Y-9343381D01*
X9741585Y-9362429D01*
X9732061Y-9371952D01*
X9713013Y-9381476D01*
X9693966Y-9381476D01*
X9674918Y-9371952D01*
X9665394Y-9362429D01*
X9655870Y-9343381D01*
X9646347Y-9305286D01*
X9646347Y-9257667D01*
X9655870Y-9219571D01*
X9665394Y-9200524D01*
X9674918Y-9191000D01*
X9693966Y-9181476D01*
X9846347Y-9362429D02*
X9855870Y-9371952D01*
X9846347Y-9381476D01*
X9836823Y-9371952D01*
X9846347Y-9362429D01*
X9846347Y-9381476D01*
X9970156Y-9267190D02*
X9951108Y-9257667D01*
X9941585Y-9248143D01*
X9932061Y-9229095D01*
X9932061Y-9219571D01*
X9941585Y-9200524D01*
X9951108Y-9191000D01*
X9970156Y-9181476D01*
X10008251Y-9181476D01*
X10027299Y-9191000D01*
X10036823Y-9200524D01*
X10046347Y-9219571D01*
X10046347Y-9229095D01*
X10036823Y-9248143D01*
X10027299Y-9257667D01*
X10008251Y-9267190D01*
X9970156Y-9267190D01*
X9951108Y-9276714D01*
X9941585Y-9286238D01*
X9932061Y-9305286D01*
X9932061Y-9343381D01*
X9941585Y-9362429D01*
X9951108Y-9371952D01*
X9970156Y-9381476D01*
X10008251Y-9381476D01*
X10027299Y-9371952D01*
X10036823Y-9362429D01*
X10046347Y-9343381D01*
X10046347Y-9305286D01*
X10036823Y-9286238D01*
X10027299Y-9276714D01*
X10008251Y-9267190D01*
X10170156Y-9181476D02*
X10189204Y-9181476D01*
X10208251Y-9191000D01*
X10217775Y-9200524D01*
X10227299Y-9219571D01*
X10236823Y-9257667D01*
X10236823Y-9305286D01*
X10227299Y-9343381D01*
X10217775Y-9362429D01*
X10208251Y-9371952D01*
X10189204Y-9381476D01*
X10170156Y-9381476D01*
X10151108Y-9371952D01*
X10141585Y-9362429D01*
X10132061Y-9343381D01*
X10122537Y-9305286D01*
X10122537Y-9257667D01*
X10132061Y-9219571D01*
X10141585Y-9200524D01*
X10151108Y-9191000D01*
X10170156Y-9181476D01*
X10360632Y-9181476D02*
X10379680Y-9181476D01*
X10398727Y-9191000D01*
X10408251Y-9200524D01*
X10417775Y-9219571D01*
X10427299Y-9257667D01*
X10427299Y-9305286D01*
X10417775Y-9343381D01*
X10408251Y-9362429D01*
X10398727Y-9371952D01*
X10379680Y-9381476D01*
X10360632Y-9381476D01*
X10341585Y-9371952D01*
X10332061Y-9362429D01*
X10322537Y-9343381D01*
X10313013Y-9305286D01*
X10313013Y-9257667D01*
X10322537Y-9219571D01*
X10332061Y-9200524D01*
X10341585Y-9191000D01*
X10360632Y-9181476D01*
X10513013Y-9381476D02*
X10513013Y-9248143D01*
X10513013Y-9267190D02*
X10522537Y-9257667D01*
X10541585Y-9248143D01*
X10570156Y-9248143D01*
X10589204Y-9257667D01*
X10598727Y-9276714D01*
X10598727Y-9381476D01*
X10598727Y-9276714D02*
X10608251Y-9257667D01*
X10627299Y-9248143D01*
X10655870Y-9248143D01*
X10674918Y-9257667D01*
X10684442Y-9276714D01*
X10684442Y-9381476D01*
X10779680Y-9381476D02*
X10779680Y-9248143D01*
X10779680Y-9267190D02*
X10789204Y-9257667D01*
X10808251Y-9248143D01*
X10836823Y-9248143D01*
X10855870Y-9257667D01*
X10865394Y-9276714D01*
X10865394Y-9381476D01*
X10865394Y-9276714D02*
X10874918Y-9257667D01*
X10893966Y-9248143D01*
X10922537Y-9248143D01*
X10941585Y-9257667D01*
X10951108Y-9276714D01*
X10951108Y-9381476D01*
X11341585Y-9171952D02*
X11170156Y-9429095D01*
X11598727Y-9181476D02*
X11617775Y-9181476D01*
X11636823Y-9191000D01*
X11646346Y-9200524D01*
X11655870Y-9219571D01*
X11665394Y-9257667D01*
X11665394Y-9305286D01*
X11655870Y-9343381D01*
X11646346Y-9362429D01*
X11636823Y-9371952D01*
X11617775Y-9381476D01*
X11598727Y-9381476D01*
X11579680Y-9371952D01*
X11570156Y-9362429D01*
X11560632Y-9343381D01*
X11551108Y-9305286D01*
X11551108Y-9257667D01*
X11560632Y-9219571D01*
X11570156Y-9200524D01*
X11579680Y-9191000D01*
X11598727Y-9181476D01*
X11751108Y-9362429D02*
X11760632Y-9371952D01*
X11751108Y-9381476D01*
X11741585Y-9371952D01*
X11751108Y-9362429D01*
X11751108Y-9381476D01*
X11884442Y-9181476D02*
X11903489Y-9181476D01*
X11922537Y-9191000D01*
X11932061Y-9200524D01*
X11941585Y-9219571D01*
X11951108Y-9257667D01*
X11951108Y-9305286D01*
X11941585Y-9343381D01*
X11932061Y-9362429D01*
X11922537Y-9371952D01*
X11903489Y-9381476D01*
X11884442Y-9381476D01*
X11865394Y-9371952D01*
X11855870Y-9362429D01*
X11846346Y-9343381D01*
X11836823Y-9305286D01*
X11836823Y-9257667D01*
X11846346Y-9219571D01*
X11855870Y-9200524D01*
X11865394Y-9191000D01*
X11884442Y-9181476D01*
X12017775Y-9181476D02*
X12141585Y-9181476D01*
X12074918Y-9257667D01*
X12103489Y-9257667D01*
X12122537Y-9267190D01*
X12132061Y-9276714D01*
X12141585Y-9295762D01*
X12141585Y-9343381D01*
X12132061Y-9362429D01*
X12122537Y-9371952D01*
X12103489Y-9381476D01*
X12046346Y-9381476D01*
X12027299Y-9371952D01*
X12017775Y-9362429D01*
X12332061Y-9381476D02*
X12217775Y-9381476D01*
X12274918Y-9381476D02*
X12274918Y-9181476D01*
X12255870Y-9210048D01*
X12236823Y-9229095D01*
X12217775Y-9238619D01*
X12513013Y-9181476D02*
X12417775Y-9181476D01*
X12408251Y-9276714D01*
X12417775Y-9267190D01*
X12436823Y-9257667D01*
X12484442Y-9257667D01*
X12503489Y-9267190D01*
X12513013Y-9276714D01*
X12522537Y-9295762D01*
X12522537Y-9343381D01*
X12513013Y-9362429D01*
X12503489Y-9371952D01*
X12484442Y-9381476D01*
X12436823Y-9381476D01*
X12417775Y-9371952D01*
X12408251Y-9362429D01*
X12598727Y-9181476D02*
X12598727Y-9219571D01*
X12674918Y-9181476D02*
X12674918Y-9219571D01*
X12970156Y-9457667D02*
X12960632Y-9448143D01*
X12941585Y-9419571D01*
X12932061Y-9400524D01*
X12922537Y-9371952D01*
X12913013Y-9324333D01*
X12913013Y-9286238D01*
X12922537Y-9238619D01*
X12932061Y-9210048D01*
X12941585Y-9191000D01*
X12960632Y-9162429D01*
X12970156Y-9152905D01*
X13036823Y-9200524D02*
X13046346Y-9191000D01*
X13065394Y-9181476D01*
X13113013Y-9181476D01*
X13132061Y-9191000D01*
X13141585Y-9200524D01*
X13151108Y-9219571D01*
X13151108Y-9238619D01*
X13141585Y-9267190D01*
X13027299Y-9381476D01*
X13151108Y-9381476D01*
X13389204Y-9381476D02*
X13389204Y-9181476D01*
X13474918Y-9381476D02*
X13474918Y-9276714D01*
X13465394Y-9257667D01*
X13446346Y-9248143D01*
X13417775Y-9248143D01*
X13398727Y-9257667D01*
X13389204Y-9267190D01*
X13598727Y-9381476D02*
X13579680Y-9371952D01*
X13570156Y-9362429D01*
X13560632Y-9343381D01*
X13560632Y-9286238D01*
X13570156Y-9267190D01*
X13579680Y-9257667D01*
X13598727Y-9248143D01*
X13627299Y-9248143D01*
X13646346Y-9257667D01*
X13655870Y-9267190D01*
X13665394Y-9286238D01*
X13665394Y-9343381D01*
X13655870Y-9362429D01*
X13646346Y-9371952D01*
X13627299Y-9381476D01*
X13598727Y-9381476D01*
X13779680Y-9381476D02*
X13760632Y-9371952D01*
X13751108Y-9352905D01*
X13751108Y-9181476D01*
X13932061Y-9371952D02*
X13913013Y-9381476D01*
X13874918Y-9381476D01*
X13855870Y-9371952D01*
X13846346Y-9352905D01*
X13846346Y-9276714D01*
X13855870Y-9257667D01*
X13874918Y-9248143D01*
X13913013Y-9248143D01*
X13932061Y-9257667D01*
X13941585Y-9276714D01*
X13941585Y-9295762D01*
X13846346Y-9314810D01*
X14017775Y-9371952D02*
X14036823Y-9381476D01*
X14074918Y-9381476D01*
X14093965Y-9371952D01*
X14103489Y-9352905D01*
X14103489Y-9343381D01*
X14093965Y-9324333D01*
X14074918Y-9314810D01*
X14046346Y-9314810D01*
X14027299Y-9305286D01*
X14017775Y-9286238D01*
X14017775Y-9276714D01*
X14027299Y-9257667D01*
X14046346Y-9248143D01*
X14074918Y-9248143D01*
X14093965Y-9257667D01*
X14170156Y-9457667D02*
X14179680Y-9448143D01*
X14198727Y-9419571D01*
X14208251Y-9400524D01*
X14217775Y-9371952D01*
X14227299Y-9324333D01*
X14227299Y-9286238D01*
X14217775Y-9238619D01*
X14208251Y-9210048D01*
X14198727Y-9191000D01*
X14179680Y-9162429D01*
X14170156Y-9152905D01*
D14*
X9348251Y-9505000D02*
X9348251Y-9605000D01*
X9298251Y-9555000D02*
X9398251Y-9555000D01*
D11*
X9760632Y-9645476D02*
X9646347Y-9645476D01*
X9703489Y-9645476D02*
X9703489Y-9445476D01*
X9684442Y-9474048D01*
X9665394Y-9493095D01*
X9646347Y-9502619D01*
X9846347Y-9626429D02*
X9855870Y-9635952D01*
X9846347Y-9645476D01*
X9836823Y-9635952D01*
X9846347Y-9626429D01*
X9846347Y-9645476D01*
X9979680Y-9445476D02*
X9998727Y-9445476D01*
X10017775Y-9455000D01*
X10027299Y-9464524D01*
X10036823Y-9483571D01*
X10046347Y-9521667D01*
X10046347Y-9569286D01*
X10036823Y-9607381D01*
X10027299Y-9626429D01*
X10017775Y-9635952D01*
X9998727Y-9645476D01*
X9979680Y-9645476D01*
X9960632Y-9635952D01*
X9951108Y-9626429D01*
X9941585Y-9607381D01*
X9932061Y-9569286D01*
X9932061Y-9521667D01*
X9941585Y-9483571D01*
X9951108Y-9464524D01*
X9960632Y-9455000D01*
X9979680Y-9445476D01*
X10170156Y-9445476D02*
X10189204Y-9445476D01*
X10208251Y-9455000D01*
X10217775Y-9464524D01*
X10227299Y-9483571D01*
X10236823Y-9521667D01*
X10236823Y-9569286D01*
X10227299Y-9607381D01*
X10217775Y-9626429D01*
X10208251Y-9635952D01*
X10189204Y-9645476D01*
X10170156Y-9645476D01*
X10151108Y-9635952D01*
X10141585Y-9626429D01*
X10132061Y-9607381D01*
X10122537Y-9569286D01*
X10122537Y-9521667D01*
X10132061Y-9483571D01*
X10141585Y-9464524D01*
X10151108Y-9455000D01*
X10170156Y-9445476D01*
X10360632Y-9445476D02*
X10379680Y-9445476D01*
X10398727Y-9455000D01*
X10408251Y-9464524D01*
X10417775Y-9483571D01*
X10427299Y-9521667D01*
X10427299Y-9569286D01*
X10417775Y-9607381D01*
X10408251Y-9626429D01*
X10398727Y-9635952D01*
X10379680Y-9645476D01*
X10360632Y-9645476D01*
X10341585Y-9635952D01*
X10332061Y-9626429D01*
X10322537Y-9607381D01*
X10313013Y-9569286D01*
X10313013Y-9521667D01*
X10322537Y-9483571D01*
X10332061Y-9464524D01*
X10341585Y-9455000D01*
X10360632Y-9445476D01*
X10513013Y-9645476D02*
X10513013Y-9512143D01*
X10513013Y-9531190D02*
X10522537Y-9521667D01*
X10541585Y-9512143D01*
X10570156Y-9512143D01*
X10589204Y-9521667D01*
X10598727Y-9540714D01*
X10598727Y-9645476D01*
X10598727Y-9540714D02*
X10608251Y-9521667D01*
X10627299Y-9512143D01*
X10655870Y-9512143D01*
X10674918Y-9521667D01*
X10684442Y-9540714D01*
X10684442Y-9645476D01*
X10779680Y-9645476D02*
X10779680Y-9512143D01*
X10779680Y-9531190D02*
X10789204Y-9521667D01*
X10808251Y-9512143D01*
X10836823Y-9512143D01*
X10855870Y-9521667D01*
X10865394Y-9540714D01*
X10865394Y-9645476D01*
X10865394Y-9540714D02*
X10874918Y-9521667D01*
X10893966Y-9512143D01*
X10922537Y-9512143D01*
X10941585Y-9521667D01*
X10951108Y-9540714D01*
X10951108Y-9645476D01*
X11341585Y-9435952D02*
X11170156Y-9693095D01*
X11598727Y-9445476D02*
X11617775Y-9445476D01*
X11636823Y-9455000D01*
X11646346Y-9464524D01*
X11655870Y-9483571D01*
X11665394Y-9521667D01*
X11665394Y-9569286D01*
X11655870Y-9607381D01*
X11646346Y-9626429D01*
X11636823Y-9635952D01*
X11617775Y-9645476D01*
X11598727Y-9645476D01*
X11579680Y-9635952D01*
X11570156Y-9626429D01*
X11560632Y-9607381D01*
X11551108Y-9569286D01*
X11551108Y-9521667D01*
X11560632Y-9483571D01*
X11570156Y-9464524D01*
X11579680Y-9455000D01*
X11598727Y-9445476D01*
X11751108Y-9626429D02*
X11760632Y-9635952D01*
X11751108Y-9645476D01*
X11741585Y-9635952D01*
X11751108Y-9626429D01*
X11751108Y-9645476D01*
X11884442Y-9445476D02*
X11903489Y-9445476D01*
X11922537Y-9455000D01*
X11932061Y-9464524D01*
X11941585Y-9483571D01*
X11951108Y-9521667D01*
X11951108Y-9569286D01*
X11941585Y-9607381D01*
X11932061Y-9626429D01*
X11922537Y-9635952D01*
X11903489Y-9645476D01*
X11884442Y-9645476D01*
X11865394Y-9635952D01*
X11855870Y-9626429D01*
X11846346Y-9607381D01*
X11836823Y-9569286D01*
X11836823Y-9521667D01*
X11846346Y-9483571D01*
X11855870Y-9464524D01*
X11865394Y-9455000D01*
X11884442Y-9445476D01*
X12017775Y-9445476D02*
X12141585Y-9445476D01*
X12074918Y-9521667D01*
X12103489Y-9521667D01*
X12122537Y-9531190D01*
X12132061Y-9540714D01*
X12141585Y-9559762D01*
X12141585Y-9607381D01*
X12132061Y-9626429D01*
X12122537Y-9635952D01*
X12103489Y-9645476D01*
X12046346Y-9645476D01*
X12027299Y-9635952D01*
X12017775Y-9626429D01*
X12236823Y-9645476D02*
X12274918Y-9645476D01*
X12293965Y-9635952D01*
X12303489Y-9626429D01*
X12322537Y-9597857D01*
X12332061Y-9559762D01*
X12332061Y-9483571D01*
X12322537Y-9464524D01*
X12313013Y-9455000D01*
X12293965Y-9445476D01*
X12255870Y-9445476D01*
X12236823Y-9455000D01*
X12227299Y-9464524D01*
X12217775Y-9483571D01*
X12217775Y-9531190D01*
X12227299Y-9550238D01*
X12236823Y-9559762D01*
X12255870Y-9569286D01*
X12293965Y-9569286D01*
X12313013Y-9559762D01*
X12322537Y-9550238D01*
X12332061Y-9531190D01*
X12503489Y-9512143D02*
X12503489Y-9645476D01*
X12455870Y-9435952D02*
X12408251Y-9578810D01*
X12532061Y-9578810D01*
X12598727Y-9445476D02*
X12598727Y-9483571D01*
X12674918Y-9445476D02*
X12674918Y-9483571D01*
X12970156Y-9721667D02*
X12960632Y-9712143D01*
X12941585Y-9683571D01*
X12932061Y-9664524D01*
X12922537Y-9635952D01*
X12913013Y-9588333D01*
X12913013Y-9550238D01*
X12922537Y-9502619D01*
X12932061Y-9474048D01*
X12941585Y-9455000D01*
X12960632Y-9426429D01*
X12970156Y-9416905D01*
X13151108Y-9645476D02*
X13036823Y-9645476D01*
X13093965Y-9645476D02*
X13093965Y-9445476D01*
X13074918Y-9474048D01*
X13055870Y-9493095D01*
X13036823Y-9502619D01*
X13322537Y-9445476D02*
X13284442Y-9445476D01*
X13265394Y-9455000D01*
X13255870Y-9464524D01*
X13236823Y-9493095D01*
X13227299Y-9531190D01*
X13227299Y-9607381D01*
X13236823Y-9626429D01*
X13246346Y-9635952D01*
X13265394Y-9645476D01*
X13303489Y-9645476D01*
X13322537Y-9635952D01*
X13332061Y-9626429D01*
X13341585Y-9607381D01*
X13341585Y-9559762D01*
X13332061Y-9540714D01*
X13322537Y-9531190D01*
X13303489Y-9521667D01*
X13265394Y-9521667D01*
X13246346Y-9531190D01*
X13236823Y-9540714D01*
X13227299Y-9559762D01*
X13579680Y-9645476D02*
X13579680Y-9445476D01*
X13665394Y-9645476D02*
X13665394Y-9540714D01*
X13655870Y-9521667D01*
X13636823Y-9512143D01*
X13608251Y-9512143D01*
X13589204Y-9521667D01*
X13579680Y-9531190D01*
X13789204Y-9645476D02*
X13770156Y-9635952D01*
X13760632Y-9626429D01*
X13751108Y-9607381D01*
X13751108Y-9550238D01*
X13760632Y-9531190D01*
X13770156Y-9521667D01*
X13789204Y-9512143D01*
X13817775Y-9512143D01*
X13836823Y-9521667D01*
X13846346Y-9531190D01*
X13855870Y-9550238D01*
X13855870Y-9607381D01*
X13846346Y-9626429D01*
X13836823Y-9635952D01*
X13817775Y-9645476D01*
X13789204Y-9645476D01*
X13970156Y-9645476D02*
X13951108Y-9635952D01*
X13941585Y-9616905D01*
X13941585Y-9445476D01*
X14122537Y-9635952D02*
X14103489Y-9645476D01*
X14065394Y-9645476D01*
X14046346Y-9635952D01*
X14036823Y-9616905D01*
X14036823Y-9540714D01*
X14046346Y-9521667D01*
X14065394Y-9512143D01*
X14103489Y-9512143D01*
X14122537Y-9521667D01*
X14132061Y-9540714D01*
X14132061Y-9559762D01*
X14036823Y-9578810D01*
X14208251Y-9635952D02*
X14227299Y-9645476D01*
X14265394Y-9645476D01*
X14284442Y-9635952D01*
X14293965Y-9616905D01*
X14293965Y-9607381D01*
X14284442Y-9588333D01*
X14265394Y-9578810D01*
X14236823Y-9578810D01*
X14217775Y-9569286D01*
X14208251Y-9550238D01*
X14208251Y-9540714D01*
X14217775Y-9521667D01*
X14236823Y-9512143D01*
X14265394Y-9512143D01*
X14284442Y-9521667D01*
X14360632Y-9721667D02*
X14370156Y-9712143D01*
X14389204Y-9683571D01*
X14398727Y-9664524D01*
X14408251Y-9635952D01*
X14417775Y-9588333D01*
X14417775Y-9550238D01*
X14408251Y-9502619D01*
X14398727Y-9474048D01*
X14389204Y-9455000D01*
X14370156Y-9426429D01*
X14360632Y-9416905D01*
M02*
