%TF.GenerationSoftware,KiCad,Pcbnew,(6.0.4)*%
%TF.CreationDate,2022-03-20T22:01:37+01:00*%
%TF.ProjectId,opentherm,6f70656e-7468-4657-926d-2e6b69636164,rev?*%
%TF.SameCoordinates,Original*%
%TF.FileFunction,Copper,L1,Top*%
%TF.FilePolarity,Positive*%
%FSLAX46Y46*%
G04 Gerber Fmt 4.6, Leading zero omitted, Abs format (unit mm)*
G04 Created by KiCad (PCBNEW (6.0.4)) date 2022-03-20 22:01:37*
%MOMM*%
%LPD*%
G01*
G04 APERTURE LIST*
G04 Aperture macros list*
%AMRoundRect*
0 Rectangle with rounded corners*
0 $1 Rounding radius*
0 $2 $3 $4 $5 $6 $7 $8 $9 X,Y pos of 4 corners*
0 Add a 4 corners polygon primitive as box body*
4,1,4,$2,$3,$4,$5,$6,$7,$8,$9,$2,$3,0*
0 Add four circle primitives for the rounded corners*
1,1,$1+$1,$2,$3*
1,1,$1+$1,$4,$5*
1,1,$1+$1,$6,$7*
1,1,$1+$1,$8,$9*
0 Add four rect primitives between the rounded corners*
20,1,$1+$1,$2,$3,$4,$5,0*
20,1,$1+$1,$4,$5,$6,$7,0*
20,1,$1+$1,$6,$7,$8,$9,0*
20,1,$1+$1,$8,$9,$2,$3,0*%
G04 Aperture macros list end*
%TA.AperFunction,ComponentPad*%
%ADD10O,2.000000X1.600000*%
%TD*%
%TA.AperFunction,ComponentPad*%
%ADD11R,2.000000X2.000000*%
%TD*%
%TA.AperFunction,SMDPad,CuDef*%
%ADD12R,1.600000X1.600000*%
%TD*%
%TA.AperFunction,ComponentPad*%
%ADD13R,1.500000X1.050000*%
%TD*%
%TA.AperFunction,ComponentPad*%
%ADD14O,1.500000X1.050000*%
%TD*%
%TA.AperFunction,SMDPad,CuDef*%
%ADD15RoundRect,0.250000X-0.450000X0.350000X-0.450000X-0.350000X0.450000X-0.350000X0.450000X0.350000X0*%
%TD*%
%TA.AperFunction,SMDPad,CuDef*%
%ADD16RoundRect,0.250000X-0.350000X-0.450000X0.350000X-0.450000X0.350000X0.450000X-0.350000X0.450000X0*%
%TD*%
%TA.AperFunction,SMDPad,CuDef*%
%ADD17RoundRect,0.250000X0.450000X-0.350000X0.450000X0.350000X-0.450000X0.350000X-0.450000X-0.350000X0*%
%TD*%
%TA.AperFunction,SMDPad,CuDef*%
%ADD18RoundRect,0.250000X0.350000X0.450000X-0.350000X0.450000X-0.350000X-0.450000X0.350000X-0.450000X0*%
%TD*%
%TA.AperFunction,ComponentPad*%
%ADD19R,1.050000X1.500000*%
%TD*%
%TA.AperFunction,ComponentPad*%
%ADD20O,1.050000X1.500000*%
%TD*%
%TA.AperFunction,SMDPad,CuDef*%
%ADD21RoundRect,0.150000X-0.150000X0.587500X-0.150000X-0.587500X0.150000X-0.587500X0.150000X0.587500X0*%
%TD*%
%TA.AperFunction,SMDPad,CuDef*%
%ADD22R,0.900000X1.200000*%
%TD*%
%TA.AperFunction,SMDPad,CuDef*%
%ADD23R,1.700000X1.300000*%
%TD*%
%TA.AperFunction,Conductor*%
%ADD24C,0.250000*%
%TD*%
%TA.AperFunction,Conductor*%
%ADD25C,1.000000*%
%TD*%
G04 APERTURE END LIST*
D10*
%TO.P,,001,D4*%
%TO.N,VCC*%
X114540613Y-74760164D03*
%TD*%
%TO.P,,001,D4*%
%TO.N,VCC*%
X114472679Y-80959154D03*
%TD*%
%TO.P,U3,16,TX*%
%TO.N,unconnected-(U3-Pad16)*%
X118595000Y-57150000D03*
%TO.P,U3,15,RX*%
%TO.N,unconnected-(U3-Pad15)*%
X118595000Y-59690000D03*
%TO.P,U3,14,SCL/D1*%
%TO.N,unconnected-(U3-Pad14)*%
X118595000Y-62230000D03*
%TO.P,U3,13,SDA/D2*%
%TO.N,unconnected-(U3-Pad13)*%
X118595000Y-64770000D03*
%TO.P,U3,12,D3*%
%TO.N,in*%
X118595000Y-67310000D03*
%TO.P,U3,11,D4*%
%TO.N,out*%
X118595000Y-69850000D03*
%TO.P,U3,10,GND*%
%TO.N,GND*%
X118595000Y-72390000D03*
%TO.P,U3,9,5V*%
%TO.N,unconnected-(U3-Pad9)*%
X118595000Y-74930000D03*
%TO.P,U3,8,3V3*%
%TO.N,VCC*%
X95735000Y-74930000D03*
%TO.P,U3,7,CS/D8*%
%TO.N,unconnected-(U3-Pad7)*%
X95735000Y-72390000D03*
%TO.P,U3,6,MOSI/D7*%
%TO.N,unconnected-(U3-Pad6)*%
X95735000Y-69850000D03*
%TO.P,U3,5,MISO/D6*%
%TO.N,unconnected-(U3-Pad5)*%
X95735000Y-67310000D03*
%TO.P,U3,4,SCK/D5*%
%TO.N,unconnected-(U3-Pad4)*%
X95735000Y-64770000D03*
%TO.P,U3,3,D0*%
%TO.N,Net-(18B20-Pad2)*%
X95735000Y-62230000D03*
%TO.P,U3,2,A0*%
%TO.N,unconnected-(U3-Pad2)*%
X95735000Y-59690000D03*
D11*
%TO.P,U3,1,~{RST}*%
%TO.N,unconnected-(U3-Pad1)*%
X95735000Y-57150000D03*
%TD*%
D12*
%TO.P,U2,1*%
%TO.N,Net-(R2-Pad2)*%
X104315124Y-74343505D03*
%TO.P,U2,2*%
%TO.N,Net-(D3-Pad1)*%
X104315124Y-76883505D03*
%TO.P,U2,3*%
%TO.N,out*%
X111935124Y-76883505D03*
%TO.P,U2,4*%
%TO.N,VCC*%
X111935124Y-74343505D03*
%TD*%
D13*
%TO.P,18B20,1,Pin_1*%
%TO.N,GND*%
X98348232Y-81437327D03*
D14*
%TO.P,18B20,2,Pin_2*%
%TO.N,Net-(18B20-Pad2)*%
X98348232Y-80167327D03*
%TO.P,18B20,3,Pin_3*%
%TO.N,VCC*%
X98348232Y-78897327D03*
%TD*%
D15*
%TO.P,R6,1*%
%TO.N,Net-(18B20-Pad2)*%
X98533673Y-73460654D03*
%TO.P,R6,2*%
%TO.N,VCC*%
X98533673Y-75460654D03*
%TD*%
D16*
%TO.P,R5,1*%
%TO.N,Net-(R5-Pad1)*%
X111252123Y-53908548D03*
%TO.P,R5,2*%
%TO.N,in*%
X113252123Y-53908548D03*
%TD*%
D17*
%TO.P,R4,1*%
%TO.N,GND*%
X115410498Y-72626621D03*
%TO.P,R4,2*%
%TO.N,out*%
X115410498Y-70626621D03*
%TD*%
D16*
%TO.P,R3,1*%
%TO.N,Net-(R2-Pad2)*%
X105680000Y-68580000D03*
%TO.P,R3,2*%
%TO.N,Net-(D3-Pad1)*%
X107680000Y-68580000D03*
%TD*%
D18*
%TO.P,R2,1*%
%TO.N,Net-(D5-Pad1)*%
X107680000Y-66040000D03*
%TO.P,R2,2*%
%TO.N,Net-(R2-Pad2)*%
X105680000Y-66040000D03*
%TD*%
D16*
%TO.P,R1,1*%
%TO.N,Net-(D1-Pad1)*%
X105680000Y-58420000D03*
%TO.P,R1,2*%
%TO.N,Net-(D6-Pad1)*%
X107680000Y-58420000D03*
%TD*%
D19*
%TO.P,J1,1,Pin_1*%
%TO.N,ot1*%
X105946985Y-80619402D03*
D20*
%TO.P,J1,2,Pin_2*%
%TO.N,ot2*%
X108486985Y-80619402D03*
%TD*%
D12*
%TO.P,U1,1*%
%TO.N,Net-(R5-Pad1)*%
X108304893Y-53650030D03*
%TO.P,U1,2*%
%TO.N,GND*%
X108304893Y-51110030D03*
%TO.P,U1,3*%
%TO.N,Net-(D7-Pad1)*%
X100684893Y-51110030D03*
%TO.P,U1,4*%
%TO.N,Net-(D6-Pad1)*%
X100684893Y-53650030D03*
%TD*%
D21*
%TO.P,Q1,1,B*%
%TO.N,Net-(D6-Pad1)*%
X107927248Y-61325447D03*
%TO.P,Q1,2,E*%
%TO.N,Net-(D1-Pad1)*%
X106027248Y-61325447D03*
%TO.P,Q1,3,C*%
%TO.N,Net-(D5-Pad1)*%
X106977248Y-63200447D03*
%TD*%
D22*
%TO.P,D3,1,K*%
%TO.N,Net-(D3-Pad1)*%
X103618324Y-62195613D03*
%TO.P,D3,2,A*%
%TO.N,ot1*%
X100318324Y-62195613D03*
%TD*%
D23*
%TO.P,D5,1,K*%
%TO.N,Net-(D5-Pad1)*%
X111614678Y-67285936D03*
%TO.P,D5,2,A*%
%TO.N,Net-(D3-Pad1)*%
X111614678Y-70785936D03*
%TD*%
D22*
%TO.P,D4,1,K*%
%TO.N,Net-(D3-Pad1)*%
X103608828Y-69864819D03*
%TO.P,D4,2,A*%
%TO.N,ot2*%
X100308828Y-69864819D03*
%TD*%
D23*
%TO.P,D6,1,K*%
%TO.N,Net-(D6-Pad1)*%
X111572062Y-61750000D03*
%TO.P,D6,2,A*%
%TO.N,Net-(D3-Pad1)*%
X111572062Y-65250000D03*
%TD*%
%TO.P,D7,1,K*%
%TO.N,Net-(D7-Pad1)*%
X111526076Y-56247334D03*
%TO.P,D7,2,A*%
%TO.N,Net-(D3-Pad1)*%
X111526076Y-59747334D03*
%TD*%
D22*
%TO.P,D1,1,K*%
%TO.N,Net-(D1-Pad1)*%
X103608828Y-58420000D03*
%TO.P,D1,2,A*%
%TO.N,ot1*%
X100308828Y-58420000D03*
%TD*%
%TO.P,D2,1,K*%
%TO.N,Net-(D1-Pad1)*%
X103608828Y-66040000D03*
%TO.P,D2,2,A*%
%TO.N,ot2*%
X100308828Y-66040000D03*
%TD*%
D24*
%TO.N,GND*%
X116544670Y-76495330D02*
X116544670Y-73741152D01*
X115430139Y-72626621D02*
X115410498Y-72626621D01*
X110943030Y-82096970D02*
X116544670Y-76495330D01*
X104608971Y-82096970D02*
X110943030Y-82096970D01*
X104366955Y-81854954D02*
X104608971Y-82096970D01*
X116544670Y-73741152D02*
X115430139Y-72626621D01*
%TO.N,VCC*%
X96940904Y-78912557D02*
X96956134Y-78897327D01*
X96956134Y-78897327D02*
X98348232Y-78897327D01*
X97272082Y-82733852D02*
X96940904Y-82402674D01*
X96940904Y-82402674D02*
X96940904Y-78912557D01*
X113525325Y-81001532D02*
X111793005Y-82733852D01*
X111793005Y-82733852D02*
X97272082Y-82733852D01*
D25*
X114289585Y-81001532D02*
X113525325Y-81001532D01*
D24*
X111935124Y-74343505D02*
X113745631Y-74343505D01*
D25*
X113745631Y-74343505D02*
X114289585Y-74887459D01*
D24*
%TO.N,GND*%
X103949328Y-81437327D02*
X104366955Y-81854954D01*
X98348232Y-81437327D02*
X103949328Y-81437327D01*
X100787675Y-78275674D02*
X104366955Y-81854954D01*
%TO.N,Net-(18B20-Pad2)*%
X96944670Y-62230000D02*
X95735000Y-62230000D01*
X97756114Y-72288979D02*
X97756114Y-63092394D01*
X97756114Y-63092394D02*
X97781589Y-63066919D01*
X98533673Y-73066538D02*
X97756114Y-72288979D01*
X97781589Y-63066919D02*
X96944670Y-62230000D01*
X99233493Y-73460654D02*
X98533673Y-73460654D01*
X99870564Y-74097725D02*
X99233493Y-73460654D01*
X98380188Y-80135371D02*
X99870564Y-80135371D01*
X99870564Y-80135371D02*
X99870564Y-74097725D01*
%TO.N,VCC*%
X98533673Y-78711886D02*
X98533673Y-75460654D01*
%TO.N,out*%
X110086160Y-76925483D02*
X111893146Y-76925483D01*
X108888821Y-75728144D02*
X110086160Y-76925483D01*
X108888821Y-73307991D02*
X108888821Y-75728144D01*
X109907833Y-72288979D02*
X108888821Y-73307991D01*
X113194146Y-72288979D02*
X109907833Y-72288979D01*
X114856504Y-70626621D02*
X113194146Y-72288979D01*
D25*
%TO.N,GND*%
X115410498Y-72626621D02*
X118358379Y-72626621D01*
D24*
X100787675Y-76798669D02*
X100787675Y-78275674D01*
X100788237Y-76798107D02*
X100787675Y-76798669D01*
X100788237Y-72174340D02*
X100788237Y-76798107D01*
X100520746Y-71906849D02*
X100788237Y-72174340D01*
X98992228Y-71906849D02*
X100520746Y-71906849D01*
X98571886Y-71486507D02*
X98992228Y-71906849D01*
X98571886Y-63232509D02*
X98571886Y-71486507D01*
X98686525Y-63117870D02*
X98571886Y-63232509D01*
X98686525Y-49628697D02*
X98686525Y-63117870D01*
X98801163Y-49514059D02*
X98686525Y-49628697D01*
X102854059Y-49514059D02*
X98801163Y-49514059D01*
X104450030Y-51110030D02*
X102854059Y-49514059D01*
X108304893Y-51110030D02*
X104450030Y-51110030D01*
%TO.N,out*%
X115792627Y-69868825D02*
X115410498Y-70250954D01*
X118576175Y-69868825D02*
X115792627Y-69868825D01*
%TO.N,Net-(D5-Pad1)*%
X109390797Y-66040000D02*
X107680000Y-66040000D01*
X109551178Y-66709887D02*
X109551178Y-66200381D01*
X110127227Y-67285936D02*
X109551178Y-66709887D01*
X109551178Y-66200381D02*
X109390797Y-66040000D01*
X111614678Y-67285936D02*
X110127227Y-67285936D01*
%TO.N,Net-(D3-Pad1)*%
X111638338Y-65316276D02*
X113576276Y-65316276D01*
X113576276Y-65316276D02*
X113576276Y-69919775D01*
X113576276Y-60315586D02*
X113576276Y-65316276D01*
X113008024Y-59747334D02*
X113576276Y-60315586D01*
X113576276Y-69919775D02*
X112710115Y-70785936D01*
X112710115Y-70785936D02*
X111614678Y-70785936D01*
X111526076Y-59747334D02*
X113008024Y-59747334D01*
%TO.N,in*%
X115118094Y-66365971D02*
X115118094Y-60213686D01*
X115118094Y-60213686D02*
X113252123Y-58347715D01*
X116062123Y-67310000D02*
X115118094Y-66365971D01*
X113252123Y-58347715D02*
X113252123Y-53908548D01*
X118595000Y-67310000D02*
X116062123Y-67310000D01*
%TO.N,ot1*%
X99145080Y-63368857D02*
X100318324Y-62195613D01*
X99145080Y-71142590D02*
X99145080Y-63368857D01*
X99374358Y-71371868D02*
X99145080Y-71142590D01*
X100864663Y-71371868D02*
X99374358Y-71371868D01*
X101399644Y-71906849D02*
X100864663Y-71371868D01*
X101399644Y-77677005D02*
X101399644Y-71906849D01*
X104342041Y-80619402D02*
X101399644Y-77677005D01*
X105946985Y-80619402D02*
X104342041Y-80619402D01*
%TO.N,ot2*%
X102125690Y-71562933D02*
X100427576Y-69864819D01*
X102125690Y-77562366D02*
X102125690Y-71562933D01*
X103501356Y-78938032D02*
X102125690Y-77562366D01*
X108048697Y-78938032D02*
X103501356Y-78938032D01*
X108507253Y-79396588D02*
X108048697Y-78938032D01*
X108507253Y-80599134D02*
X108507253Y-79396588D01*
%TO.N,VCC*%
X96265654Y-75460654D02*
X98533673Y-75460654D01*
%TO.N,Net-(R5-Pad1)*%
X110993605Y-53650030D02*
X108304893Y-53650030D01*
%TO.N,Net-(D7-Pad1)*%
X102269569Y-51110030D02*
X100684893Y-51110030D01*
X107093374Y-55933835D02*
X102269569Y-51110030D01*
X111212577Y-55933835D02*
X107093374Y-55933835D01*
%TO.N,Net-(D6-Pad1)*%
X102393181Y-54825659D02*
X101860522Y-54825659D01*
X107680000Y-58010766D02*
X106252689Y-56583455D01*
X106252689Y-56583455D02*
X104150977Y-56583455D01*
X104150977Y-56583455D02*
X102393181Y-54825659D01*
X101860522Y-54825659D02*
X100684893Y-53650030D01*
%TO.N,Net-(D3-Pad1)*%
X102889949Y-70583698D02*
X103608828Y-69864819D01*
X102889949Y-76607042D02*
X102889949Y-70583698D01*
X104115087Y-76683468D02*
X102966375Y-76683468D01*
X102966375Y-76683468D02*
X102889949Y-76607042D01*
X105996495Y-76883505D02*
X104315124Y-76883505D01*
X106680000Y-73660000D02*
X106680000Y-76200000D01*
X106680000Y-76200000D02*
X105996495Y-76883505D01*
X109220000Y-71120000D02*
X106680000Y-73660000D01*
X109220000Y-71120000D02*
X111052726Y-71120000D01*
%TO.N,Net-(R2-Pad2)*%
X104315124Y-72201257D02*
X104315124Y-74343505D01*
X105680000Y-70836381D02*
X104315124Y-72201257D01*
X105680000Y-68580000D02*
X105680000Y-70836381D01*
X105680000Y-68580000D02*
X105680000Y-66040000D01*
%TO.N,Net-(D3-Pad1)*%
X102049264Y-64149620D02*
X103618324Y-62580560D01*
X102049264Y-67932702D02*
X102049264Y-64149620D01*
X103608828Y-69492266D02*
X102049264Y-67932702D01*
%TO.N,ot2*%
X100308828Y-66040000D02*
X100308828Y-69864819D01*
%TO.N,ot1*%
X100318324Y-58429496D02*
X100318324Y-62195613D01*
%TO.N,Net-(D1-Pad1)*%
X104140000Y-65154133D02*
X104140000Y-66040000D01*
X105526643Y-63767490D02*
X104140000Y-65154133D01*
X104140000Y-66040000D02*
X103608828Y-66040000D01*
X105526643Y-61826052D02*
X105526643Y-63767490D01*
X106027248Y-61325447D02*
X105526643Y-61826052D01*
X105680000Y-58420000D02*
X103608828Y-58420000D01*
X106027248Y-58767248D02*
X106027248Y-61325447D01*
%TO.N,Net-(D6-Pad1)*%
X107927248Y-61325447D02*
X107927248Y-58667248D01*
X108496857Y-61895056D02*
X107927248Y-61325447D01*
X111213009Y-61895056D02*
X108496857Y-61895056D01*
%TO.N,Net-(D5-Pad1)*%
X107704781Y-63927980D02*
X106977248Y-63200447D01*
X107704781Y-66015219D02*
X107704781Y-63927980D01*
%TO.N,Net-(D3-Pad1)*%
X107680000Y-68580000D02*
X109220000Y-70120000D01*
X109220000Y-70120000D02*
X109220000Y-71120000D01*
%TD*%
M02*
