%TF.GenerationSoftware,KiCad,Pcbnew,(6.0.4)*%
%TF.CreationDate,2022-03-20T22:01:37+01:00*%
%TF.ProjectId,opentherm,6f70656e-7468-4657-926d-2e6b69636164,rev?*%
%TF.SameCoordinates,Original*%
%TF.FileFunction,Paste,Top*%
%TF.FilePolarity,Positive*%
%FSLAX46Y46*%
G04 Gerber Fmt 4.6, Leading zero omitted, Abs format (unit mm)*
G04 Created by KiCad (PCBNEW (6.0.4)) date 2022-03-20 22:01:37*
%MOMM*%
%LPD*%
G01*
G04 APERTURE LIST*
G04 Aperture macros list*
%AMRoundRect*
0 Rectangle with rounded corners*
0 $1 Rounding radius*
0 $2 $3 $4 $5 $6 $7 $8 $9 X,Y pos of 4 corners*
0 Add a 4 corners polygon primitive as box body*
4,1,4,$2,$3,$4,$5,$6,$7,$8,$9,$2,$3,0*
0 Add four circle primitives for the rounded corners*
1,1,$1+$1,$2,$3*
1,1,$1+$1,$4,$5*
1,1,$1+$1,$6,$7*
1,1,$1+$1,$8,$9*
0 Add four rect primitives between the rounded corners*
20,1,$1+$1,$2,$3,$4,$5,0*
20,1,$1+$1,$4,$5,$6,$7,0*
20,1,$1+$1,$6,$7,$8,$9,0*
20,1,$1+$1,$8,$9,$2,$3,0*%
G04 Aperture macros list end*
%ADD10R,1.600000X1.600000*%
%ADD11RoundRect,0.250000X-0.450000X0.350000X-0.450000X-0.350000X0.450000X-0.350000X0.450000X0.350000X0*%
%ADD12RoundRect,0.250000X-0.350000X-0.450000X0.350000X-0.450000X0.350000X0.450000X-0.350000X0.450000X0*%
%ADD13RoundRect,0.250000X0.450000X-0.350000X0.450000X0.350000X-0.450000X0.350000X-0.450000X-0.350000X0*%
%ADD14RoundRect,0.250000X0.350000X0.450000X-0.350000X0.450000X-0.350000X-0.450000X0.350000X-0.450000X0*%
%ADD15RoundRect,0.150000X-0.150000X0.587500X-0.150000X-0.587500X0.150000X-0.587500X0.150000X0.587500X0*%
%ADD16R,0.900000X1.200000*%
%ADD17R,1.700000X1.300000*%
G04 APERTURE END LIST*
D10*
%TO.C,U2*%
X104315124Y-74343505D03*
X104315124Y-76883505D03*
X111935124Y-76883505D03*
X111935124Y-74343505D03*
%TD*%
D11*
%TO.C,R6*%
X98533673Y-73460654D03*
X98533673Y-75460654D03*
%TD*%
D12*
%TO.C,R5*%
X111252123Y-53908548D03*
X113252123Y-53908548D03*
%TD*%
D13*
%TO.C,R4*%
X115410498Y-72626621D03*
X115410498Y-70626621D03*
%TD*%
D12*
%TO.C,R3*%
X105680000Y-68580000D03*
X107680000Y-68580000D03*
%TD*%
D14*
%TO.C,R2*%
X107680000Y-66040000D03*
X105680000Y-66040000D03*
%TD*%
D12*
%TO.C,R1*%
X105680000Y-58420000D03*
X107680000Y-58420000D03*
%TD*%
D10*
%TO.C,U1*%
X108304893Y-53650030D03*
X108304893Y-51110030D03*
X100684893Y-51110030D03*
X100684893Y-53650030D03*
%TD*%
D15*
%TO.C,Q1*%
X107927248Y-61325447D03*
X106027248Y-61325447D03*
X106977248Y-63200447D03*
%TD*%
D16*
%TO.C,D3*%
X103618324Y-62195613D03*
X100318324Y-62195613D03*
%TD*%
D17*
%TO.C,D5*%
X111614678Y-67285936D03*
X111614678Y-70785936D03*
%TD*%
D16*
%TO.C,D4*%
X103608828Y-69864819D03*
X100308828Y-69864819D03*
%TD*%
D17*
%TO.C,D6*%
X111572062Y-61750000D03*
X111572062Y-65250000D03*
%TD*%
%TO.C,D7*%
X111526076Y-56247334D03*
X111526076Y-59747334D03*
%TD*%
D16*
%TO.C,D1*%
X103608828Y-58420000D03*
X100308828Y-58420000D03*
%TD*%
%TO.C,D2*%
X103608828Y-66040000D03*
X100308828Y-66040000D03*
%TD*%
M02*
